<svg height="512" viewBox="0 0 64 64" width="512" xmlns="http://www.w3.org/2000/svg"><path d="m62 37h-2v-3a1 1 0 0 0 -1-1h-4v-1h4a1 1 0 0 0 1-1v-3a1 1 0 0 0 -1-1h-4a23 23 0 0 0 -46 0h-4a1 1 0 0 0 -1 1v3a1 1 0 0 0 1 1h4v1h-4a1 1 0 0 0 -1 1v3h-2a1 1 0 0 0 -1 1v12a1 1 0 0 0 1 1h2v3a1 1 0 0 0 1 1h10a1 1 0 0 0 1-1v-20a1 1 0 0 0 -1-1h-4v-1h4a1 1 0 0 0 1-1v-3a1 1 0 0 0 -1-1h-4a21 21 0 0 1 42 0h-4a1 1 0 0 0 -1 1v3a1 1 0 0 0 1 1h4v1h-4a1 1 0 0 0 -1 1v20a1 1 0 0 0 1 1h10a1 1 0 0 0 1-1v-3h2a1 1 0 0 0 1-1v-12a1 1 0 0 0 -1-1zm-59 12v-10h1v10zm11-14v18h-8v-18zm0-6v1h-8v-1zm36 1v-1h8v1zm8 23h-8v-18h8zm3-4h-1v-10h1z"/><path d="m8 46a1 1 0 0 0 1-1v-7a1 1 0 0 0 -2 0v7a1 1 0 0 0 1 1z"/><path d="m8 50a1 1 0 0 0 1-1v-1a1 1 0 0 0 -2 0v1a1 1 0 0 0 1 1z"/><path d="m20 38a1 1 0 0 0 -1 1v8a1 1 0 0 0 2 0v-8a1 1 0 0 0 -1-1z"/><path d="m24 34a1 1 0 0 0 -1 1v16a1 1 0 0 0 2 0v-16a1 1 0 0 0 -1-1z"/><path d="m28 41a1 1 0 0 0 -1 1v6a1 1 0 0 0 2 0v-6a1 1 0 0 0 -1-1z"/><path d="m32 30a1 1 0 0 0 -1 1v24a1 1 0 0 0 2 0v-24a1 1 0 0 0 -1-1z"/><path d="m28 37a1 1 0 0 0 -1 1v1a1 1 0 0 0 2 0v-1a1 1 0 0 0 -1-1z"/><path d="m44 38a1 1 0 0 0 -1 1v8a1 1 0 0 0 2 0v-8a1 1 0 0 0 -1-1z"/><path d="m40 34a1 1 0 0 0 -1 1v16a1 1 0 0 0 2 0v-16a1 1 0 0 0 -1-1z"/><path d="m36 37a1 1 0 0 0 -1 1v6a1 1 0 0 0 2 0v-6a1 1 0 0 0 -1-1z"/><path d="m36 46a1 1 0 0 0 -1 1v1a1 1 0 0 0 2 0v-1a1 1 0 0 0 -1-1z"/></svg>