<svg height="512" viewBox="0 0 64 64" width="512" xmlns="http://www.w3.org/2000/svg" xmlns:xlink="http://www.w3.org/1999/xlink"><linearGradient id="linear-gradient" gradientUnits="userSpaceOnUse" x1="3.726" x2="67.851" y1="66.726" y2="2.601"><stop offset="0" stop-color="#003f8a"/><stop offset=".518" stop-color="#00d7df"/><stop offset="1" stop-color="#006df0"/></linearGradient><linearGradient id="linear-gradient-2" x1="-6.75" x2="57.375" xlink:href="#linear-gradient" y1="56.25" y2="-7.875"/><linearGradient id="linear-gradient-3" x1="-3.25" x2="60.875" xlink:href="#linear-gradient" y1="59.75" y2="-4.375"/><linearGradient id="linear-gradient-4" x1="0" x2="64.125" xlink:href="#linear-gradient" y1="63" y2="-1.125"/><linearGradient id="linear-gradient-5" x1="2" x2="66.125" xlink:href="#linear-gradient" y1="65" y2=".875"/><linearGradient id="linear-gradient-6" x1="5" x2="69.125" xlink:href="#linear-gradient" y1="68" y2="3.875"/><linearGradient id="linear-gradient-7" x1="6" x2="70.125" xlink:href="#linear-gradient" y1="69" y2="4.875"/><linearGradient id="linear-gradient-8" x1="1.75" x2="65.875" xlink:href="#linear-gradient" y1="64.75" y2=".625"/><linearGradient id="linear-gradient-9" x1="12" x2="76.125" xlink:href="#linear-gradient" y1="75" y2="10.875"/><linearGradient id="linear-gradient-10" x1="10" x2="74.125" xlink:href="#linear-gradient" y1="73" y2="8.875"/><linearGradient id="linear-gradient-11" x1="7" x2="71.125" xlink:href="#linear-gradient" y1="70" y2="5.875"/><linearGradient id="linear-gradient-12" x1="10.25" x2="74.375" xlink:href="#linear-gradient" y1="73.25" y2="9.125"/><path d="m62 37h-2v-3a1 1 0 0 0 -1-1h-4v-1h4a1 1 0 0 0 1-1v-3a1 1 0 0 0 -1-1h-4a23 23 0 0 0 -46 0h-4a1 1 0 0 0 -1 1v3a1 1 0 0 0 1 1h4v1h-4a1 1 0 0 0 -1 1v3h-2a1 1 0 0 0 -1 1v12a1 1 0 0 0 1 1h2v3a1 1 0 0 0 1 1h10a1 1 0 0 0 1-1v-20a1 1 0 0 0 -1-1h-4v-1h4a1 1 0 0 0 1-1v-3a1 1 0 0 0 -1-1h-4a21 21 0 0 1 42 0h-4a1 1 0 0 0 -1 1v3a1 1 0 0 0 1 1h4v1h-4a1 1 0 0 0 -1 1v20a1 1 0 0 0 1 1h10a1 1 0 0 0 1-1v-3h2a1 1 0 0 0 1-1v-12a1 1 0 0 0 -1-1zm-59 12v-10h1v10zm11-14v18h-8v-18zm0-6v1h-8v-1zm36 1v-1h8v1zm8 23h-8v-18h8zm3-4h-1v-10h1z" fill="url(#linear-gradient)"/><path d="m8 46a1 1 0 0 0 1-1v-7a1 1 0 0 0 -2 0v7a1 1 0 0 0 1 1z" fill="url(#linear-gradient-2)"/><path d="m8 50a1 1 0 0 0 1-1v-1a1 1 0 0 0 -2 0v1a1 1 0 0 0 1 1z" fill="url(#linear-gradient-3)"/><path d="m20 38a1 1 0 0 0 -1 1v8a1 1 0 0 0 2 0v-8a1 1 0 0 0 -1-1z" fill="url(#linear-gradient-4)"/><path d="m24 34a1 1 0 0 0 -1 1v16a1 1 0 0 0 2 0v-16a1 1 0 0 0 -1-1z" fill="url(#linear-gradient-5)"/><path d="m28 41a1 1 0 0 0 -1 1v6a1 1 0 0 0 2 0v-6a1 1 0 0 0 -1-1z" fill="url(#linear-gradient-6)"/><path d="m32 30a1 1 0 0 0 -1 1v24a1 1 0 0 0 2 0v-24a1 1 0 0 0 -1-1z" fill="url(#linear-gradient-7)"/><path d="m28 37a1 1 0 0 0 -1 1v1a1 1 0 0 0 2 0v-1a1 1 0 0 0 -1-1z" fill="url(#linear-gradient-8)"/><path d="m44 38a1 1 0 0 0 -1 1v8a1 1 0 0 0 2 0v-8a1 1 0 0 0 -1-1z" fill="url(#linear-gradient-9)"/><path d="m40 34a1 1 0 0 0 -1 1v16a1 1 0 0 0 2 0v-16a1 1 0 0 0 -1-1z" fill="url(#linear-gradient-10)"/><path d="m36 37a1 1 0 0 0 -1 1v6a1 1 0 0 0 2 0v-6a1 1 0 0 0 -1-1z" fill="url(#linear-gradient-11)"/><path d="m36 46a1 1 0 0 0 -1 1v1a1 1 0 0 0 2 0v-1a1 1 0 0 0 -1-1z" fill="url(#linear-gradient-12)"/></svg>